<svg xmlns="http://www.w3.org/2000/svg" width="20" height="22" viewBox="0 0 20 22" fill="none">
    <path fill-rule="evenodd" clip-rule="evenodd"
        d="M7.05005 0.499878L4.55005 2.99988L3.05001 6.00007L0.548132 12.4998C0.548132 12.4998 2.14989 12.5898 2.79231 12.8169C3.43473 13.044 6.54813 16.9998 6.54813 16.9998L7.06265 18.4998L6.52654 20.112L7.06265 21.0867C7.06265 21.0867 7.26621 20.3553 7.92237 19.725C8.57852 19.0947 10.0637 18.0089 10.0637 18.0089C10.0637 18.0089 9.59171 18.3473 9.54813 17.9998C8.64375 17.9998 8.62067 15.185 9.54813 14.4998C10.4756 13.8146 15.6019 12.3327 15.6019 12.3327L17.5481 6.49979L19.5481 -0.00021358L18.0481 -0.000213488L16.0481 -0.000213562L13.0482 7.42767e-06L7.05005 0.499878Z"
        fill="#FFC9F0" />
</svg>